<mxfile host="app.diagrams.net" modified="2024-01-11T11:54:29.448Z" agent="Mozilla/5.0 (Windows NT 10.0; Win64; x64) AppleWebKit/537.36 (KHTML, like Gecko) Chrome/99.0.4844.51 Safari/537.36" etag="HVVELxXehJbGbaBJUBza" version="22.1.16" type="github">
  <diagram name="Page-1" id="YWD2HjK3y50GLXmwUPNj">
    <mxGraphModel dx="1962" dy="922" grid="0" gridSize="10" guides="1" tooltips="1" connect="1" arrows="1" fold="1" page="0" pageScale="1" pageWidth="850" pageHeight="1100" math="0" shadow="0">
      <root>
        <mxCell id="0" />
        <mxCell id="1" parent="0" />
        <mxCell id="cRGSgN0ht5B0TXOjpEZ--21" value="" style="rounded=0;whiteSpace=wrap;html=1;fillColor=#dae8fc;strokeColor=#6c8ebf;" parent="1" vertex="1">
          <mxGeometry x="909" y="326" width="189" height="302" as="geometry" />
        </mxCell>
        <mxCell id="cRGSgN0ht5B0TXOjpEZ--8" value="" style="rounded=0;whiteSpace=wrap;html=1;fillColor=#fff2cc;strokeColor=#d6b656;" parent="1" vertex="1">
          <mxGeometry x="470" y="328" width="189" height="302" as="geometry" />
        </mxCell>
        <mxCell id="cRGSgN0ht5B0TXOjpEZ--1" value="" style="rounded=0;whiteSpace=wrap;html=1;fillColor=#d5e8d4;strokeColor=none;" parent="1" vertex="1">
          <mxGeometry x="182" y="326" width="189" height="302" as="geometry" />
        </mxCell>
        <mxCell id="cRGSgN0ht5B0TXOjpEZ--10" style="rounded=0;orthogonalLoop=1;jettySize=auto;html=1;exitX=1;exitY=0.5;exitDx=0;exitDy=0;" parent="1" source="cRGSgN0ht5B0TXOjpEZ--6" target="cRGSgN0ht5B0TXOjpEZ--9" edge="1">
          <mxGeometry relative="1" as="geometry" />
        </mxCell>
        <mxCell id="cRGSgN0ht5B0TXOjpEZ--11" value="&lt;b&gt;订阅&lt;/b&gt;" style="edgeLabel;html=1;align=center;verticalAlign=middle;resizable=0;points=[];" parent="cRGSgN0ht5B0TXOjpEZ--10" vertex="1" connectable="0">
          <mxGeometry x="-0.1309" y="1" relative="1" as="geometry">
            <mxPoint as="offset" />
          </mxGeometry>
        </mxCell>
        <mxCell id="cRGSgN0ht5B0TXOjpEZ--6" value="&lt;b&gt;广点通&lt;br&gt;&lt;/b&gt;" style="rounded=1;whiteSpace=wrap;html=1;fillColor=#d5e8d4;strokeColor=#82b366;" parent="1" vertex="1">
          <mxGeometry x="216.5" y="389" width="120" height="60" as="geometry" />
        </mxCell>
        <mxCell id="cRGSgN0ht5B0TXOjpEZ--18" style="edgeStyle=orthogonalEdgeStyle;curved=1;rounded=0;orthogonalLoop=1;jettySize=auto;html=1;exitX=1;exitY=0.5;exitDx=0;exitDy=0;fontSize=12;fontColor=#FF3333;" parent="1" source="cRGSgN0ht5B0TXOjpEZ--7" target="cRGSgN0ht5B0TXOjpEZ--17" edge="1">
          <mxGeometry relative="1" as="geometry" />
        </mxCell>
        <mxCell id="cRGSgN0ht5B0TXOjpEZ--20" value="订阅" style="edgeLabel;html=1;align=center;verticalAlign=middle;resizable=0;points=[];fontSize=12;fontColor=#000000;fontStyle=1" parent="cRGSgN0ht5B0TXOjpEZ--18" vertex="1" connectable="0">
          <mxGeometry x="-0.1114" relative="1" as="geometry">
            <mxPoint as="offset" />
          </mxGeometry>
        </mxCell>
        <mxCell id="cRGSgN0ht5B0TXOjpEZ--7" value="&lt;b&gt;微信&lt;/b&gt;" style="rounded=1;whiteSpace=wrap;html=1;fillColor=#d5e8d4;strokeColor=#82b366;" parent="1" vertex="1">
          <mxGeometry x="216.5" y="505" width="120" height="60" as="geometry" />
        </mxCell>
        <mxCell id="cRGSgN0ht5B0TXOjpEZ--29" style="edgeStyle=orthogonalEdgeStyle;rounded=0;orthogonalLoop=1;jettySize=auto;html=1;exitX=1;exitY=0.5;exitDx=0;exitDy=0;entryX=0;entryY=0.5;entryDx=0;entryDy=0;fontSize=12;fontColor=#3333FF;" parent="1" source="cRGSgN0ht5B0TXOjpEZ--9" target="cRGSgN0ht5B0TXOjpEZ--28" edge="1">
          <mxGeometry relative="1" as="geometry" />
        </mxCell>
        <mxCell id="cRGSgN0ht5B0TXOjpEZ--9" value="&lt;b&gt;ss-cdg-12-v2&lt;/b&gt;" style="rounded=1;whiteSpace=wrap;html=1;fillColor=#fff2cc;strokeColor=#d6b656;" parent="1" vertex="1">
          <mxGeometry x="508.5" y="389" width="120" height="60" as="geometry" />
        </mxCell>
        <mxCell id="cRGSgN0ht5B0TXOjpEZ--15" value="&lt;b&gt;&lt;font color=&quot;#ff3333&quot; style=&quot;font-size: 12px;&quot;&gt;Mixer Tdbank&lt;/font&gt;&lt;/b&gt;" style="text;html=1;strokeColor=none;fillColor=none;align=center;verticalAlign=middle;whiteSpace=wrap;rounded=0;" parent="1" vertex="1">
          <mxGeometry x="182" y="328" width="104" height="30" as="geometry" />
        </mxCell>
        <mxCell id="cRGSgN0ht5B0TXOjpEZ--16" value="&lt;b&gt;&lt;font color=&quot;#ff3333&quot; style=&quot;font-size: 12px;&quot;&gt;HDFS&lt;/font&gt;&lt;/b&gt;" style="text;html=1;strokeColor=none;fillColor=none;align=center;verticalAlign=middle;whiteSpace=wrap;rounded=0;" parent="1" vertex="1">
          <mxGeometry x="470" y="333" width="60" height="30" as="geometry" />
        </mxCell>
        <mxCell id="cRGSgN0ht5B0TXOjpEZ--30" style="edgeStyle=orthogonalEdgeStyle;rounded=0;orthogonalLoop=1;jettySize=auto;html=1;exitX=1;exitY=0.5;exitDx=0;exitDy=0;entryX=0;entryY=0.5;entryDx=0;entryDy=0;fontSize=12;fontColor=#3333FF;" parent="1" source="cRGSgN0ht5B0TXOjpEZ--17" target="cRGSgN0ht5B0TXOjpEZ--28" edge="1">
          <mxGeometry relative="1" as="geometry" />
        </mxCell>
        <mxCell id="cRGSgN0ht5B0TXOjpEZ--17" value="&lt;b&gt;ss-cdg-13-v2&lt;/b&gt;" style="rounded=1;whiteSpace=wrap;html=1;fillColor=#fff2cc;strokeColor=#d6b656;" parent="1" vertex="1">
          <mxGeometry x="508.5" y="505" width="120" height="60" as="geometry" />
        </mxCell>
        <mxCell id="cRGSgN0ht5B0TXOjpEZ--22" value="&lt;b&gt;&lt;font color=&quot;#ff3333&quot; style=&quot;font-size: 12px;&quot;&gt;Iceberg&lt;/font&gt;&lt;/b&gt;" style="text;html=1;strokeColor=none;fillColor=none;align=center;verticalAlign=middle;whiteSpace=wrap;rounded=0;" parent="1" vertex="1">
          <mxGeometry x="907" y="326" width="60" height="30" as="geometry" />
        </mxCell>
        <mxCell id="cRGSgN0ht5B0TXOjpEZ--23" value="&lt;b&gt;请求表&lt;br&gt;etl_pageview_mixer&lt;br&gt;&lt;/b&gt;" style="rounded=1;whiteSpace=wrap;html=1;fillColor=#dae8fc;strokeColor=#6c8ebf;" parent="1" vertex="1">
          <mxGeometry x="947" y="445" width="120" height="60" as="geometry" />
        </mxCell>
        <mxCell id="cRGSgN0ht5B0TXOjpEZ--31" style="edgeStyle=orthogonalEdgeStyle;rounded=0;orthogonalLoop=1;jettySize=auto;html=1;exitX=1;exitY=0.5;exitDx=0;exitDy=0;entryX=0;entryY=0.5;entryDx=0;entryDy=0;fontSize=12;fontColor=#3333FF;" parent="1" source="cRGSgN0ht5B0TXOjpEZ--28" target="cRGSgN0ht5B0TXOjpEZ--23" edge="1">
          <mxGeometry relative="1" as="geometry" />
        </mxCell>
        <mxCell id="cRGSgN0ht5B0TXOjpEZ--28" value="&lt;b&gt;ETL&lt;/b&gt;" style="rounded=1;whiteSpace=wrap;html=1;fillColor=#f5f5f5;strokeColor=#666666;fontColor=#333333;" parent="1" vertex="1">
          <mxGeometry x="732" y="445" width="120" height="60" as="geometry" />
        </mxCell>
        <mxCell id="cRGSgN0ht5B0TXOjpEZ--32" value="" style="rounded=0;whiteSpace=wrap;html=1;fillColor=#dae8fc;strokeColor=#6c8ebf;" parent="1" vertex="1">
          <mxGeometry x="907" y="707" width="217" height="302" as="geometry" />
        </mxCell>
        <mxCell id="cRGSgN0ht5B0TXOjpEZ--33" value="" style="rounded=0;whiteSpace=wrap;html=1;fillColor=#fff2cc;strokeColor=#d6b656;" parent="1" vertex="1">
          <mxGeometry x="468" y="673" width="189" height="392" as="geometry" />
        </mxCell>
        <mxCell id="cRGSgN0ht5B0TXOjpEZ--34" value="" style="rounded=0;whiteSpace=wrap;html=1;fillColor=#d5e8d4;strokeColor=none;" parent="1" vertex="1">
          <mxGeometry x="182" y="674" width="189" height="395" as="geometry" />
        </mxCell>
        <mxCell id="cRGSgN0ht5B0TXOjpEZ--60" style="edgeStyle=orthogonalEdgeStyle;rounded=0;orthogonalLoop=1;jettySize=auto;html=1;exitX=1;exitY=0.5;exitDx=0;exitDy=0;entryX=0;entryY=0.5;entryDx=0;entryDy=0;fontSize=12;fontColor=#3333FF;" parent="1" source="cRGSgN0ht5B0TXOjpEZ--40" target="cRGSgN0ht5B0TXOjpEZ--45" edge="1">
          <mxGeometry relative="1" as="geometry">
            <Array as="points">
              <mxPoint x="337" y="767" />
              <mxPoint x="420" y="767" />
              <mxPoint x="420" y="796" />
            </Array>
          </mxGeometry>
        </mxCell>
        <mxCell id="cRGSgN0ht5B0TXOjpEZ--40" value="&lt;b&gt;广点通&lt;br&gt;&lt;/b&gt;" style="rounded=1;whiteSpace=wrap;html=1;fillColor=#d5e8d4;strokeColor=#82b366;" parent="1" vertex="1">
          <mxGeometry x="216.5" y="723" width="120" height="60" as="geometry" />
        </mxCell>
        <mxCell id="cRGSgN0ht5B0TXOjpEZ--43" value="&lt;b&gt;微信&lt;/b&gt;" style="rounded=1;whiteSpace=wrap;html=1;fillColor=#d5e8d4;strokeColor=#82b366;" parent="1" vertex="1">
          <mxGeometry x="216.5" y="888" width="120" height="160" as="geometry" />
        </mxCell>
        <mxCell id="cRGSgN0ht5B0TXOjpEZ--45" value="&lt;b&gt;ss-cdg-11-v2&lt;/b&gt;" style="rounded=1;whiteSpace=wrap;html=1;fillColor=#fff2cc;strokeColor=#d6b656;" parent="1" vertex="1">
          <mxGeometry x="502.5" y="766" width="120" height="60" as="geometry" />
        </mxCell>
        <mxCell id="cRGSgN0ht5B0TXOjpEZ--46" value="&lt;b&gt;&lt;font color=&quot;#ff3333&quot; style=&quot;font-size: 12px;&quot;&gt;Logjoin 曝光 Tdbank&lt;/font&gt;&lt;/b&gt;" style="text;html=1;strokeColor=none;fillColor=none;align=center;verticalAlign=middle;whiteSpace=wrap;rounded=0;" parent="1" vertex="1">
          <mxGeometry x="182" y="676" width="140" height="30" as="geometry" />
        </mxCell>
        <mxCell id="cRGSgN0ht5B0TXOjpEZ--47" value="&lt;b&gt;&lt;font color=&quot;#ff3333&quot; style=&quot;font-size: 12px;&quot;&gt;HDFS&lt;/font&gt;&lt;/b&gt;" style="text;html=1;strokeColor=none;fillColor=none;align=center;verticalAlign=middle;whiteSpace=wrap;rounded=0;" parent="1" vertex="1">
          <mxGeometry x="465" y="674" width="60" height="30" as="geometry" />
        </mxCell>
        <mxCell id="cRGSgN0ht5B0TXOjpEZ--49" value="&lt;b&gt;ss-cdg-16-v2&lt;/b&gt;" style="rounded=1;whiteSpace=wrap;html=1;fillColor=#fff2cc;strokeColor=#d6b656;" parent="1" vertex="1">
          <mxGeometry x="502.5" y="932" width="120" height="60" as="geometry" />
        </mxCell>
        <mxCell id="cRGSgN0ht5B0TXOjpEZ--50" value="&lt;b&gt;&lt;font color=&quot;#ff3333&quot; style=&quot;font-size: 12px;&quot;&gt;Iceberg&lt;/font&gt;&lt;/b&gt;" style="text;html=1;strokeColor=none;fillColor=none;align=center;verticalAlign=middle;whiteSpace=wrap;rounded=0;" parent="1" vertex="1">
          <mxGeometry x="905" y="707" width="60" height="30" as="geometry" />
        </mxCell>
        <mxCell id="cRGSgN0ht5B0TXOjpEZ--51" value="&lt;b&gt;曝光表&lt;br&gt;etl_pageview_exposure&lt;br&gt;&lt;/b&gt;" style="rounded=1;whiteSpace=wrap;html=1;fillColor=#dae8fc;strokeColor=#6c8ebf;" parent="1" vertex="1">
          <mxGeometry x="945" y="826" width="142" height="60" as="geometry" />
        </mxCell>
        <mxCell id="cRGSgN0ht5B0TXOjpEZ--52" style="edgeStyle=orthogonalEdgeStyle;rounded=0;orthogonalLoop=1;jettySize=auto;html=1;exitX=1;exitY=0.5;exitDx=0;exitDy=0;entryX=0;entryY=0.5;entryDx=0;entryDy=0;fontSize=12;fontColor=#3333FF;" parent="1" source="cRGSgN0ht5B0TXOjpEZ--53" target="cRGSgN0ht5B0TXOjpEZ--51" edge="1">
          <mxGeometry relative="1" as="geometry" />
        </mxCell>
        <mxCell id="cRGSgN0ht5B0TXOjpEZ--53" value="&lt;b&gt;ETL&lt;/b&gt;" style="rounded=1;whiteSpace=wrap;html=1;fillColor=#f5f5f5;strokeColor=#666666;fontColor=#333333;" parent="1" vertex="1">
          <mxGeometry x="730" y="826" width="120" height="60" as="geometry" />
        </mxCell>
        <mxCell id="mlC_rBUrCJSZMl_u4j2E-3" style="edgeStyle=orthogonalEdgeStyle;rounded=0;orthogonalLoop=1;jettySize=auto;html=1;exitX=1;exitY=0.5;exitDx=0;exitDy=0;entryX=0;entryY=0.5;entryDx=0;entryDy=0;" edge="1" parent="1" source="cRGSgN0ht5B0TXOjpEZ--54" target="mlC_rBUrCJSZMl_u4j2E-1">
          <mxGeometry relative="1" as="geometry" />
        </mxCell>
        <mxCell id="mlC_rBUrCJSZMl_u4j2E-5" value="protoc" style="edgeLabel;html=1;align=center;verticalAlign=middle;resizable=0;points=[];fontStyle=1" vertex="1" connectable="0" parent="mlC_rBUrCJSZMl_u4j2E-3">
          <mxGeometry x="0.0213" y="1" relative="1" as="geometry">
            <mxPoint as="offset" />
          </mxGeometry>
        </mxCell>
        <mxCell id="cRGSgN0ht5B0TXOjpEZ--54" value="&lt;b&gt;ad.proto&lt;/b&gt;" style="rounded=1;whiteSpace=wrap;html=1;fillColor=#ffe6cc;strokeColor=#d79b00;" parent="1" vertex="1">
          <mxGeometry x="382.5" y="1341" width="106.5" height="49" as="geometry" />
        </mxCell>
        <mxCell id="cRGSgN0ht5B0TXOjpEZ--63" style="edgeStyle=orthogonalEdgeStyle;rounded=0;orthogonalLoop=1;jettySize=auto;html=1;exitX=1;exitY=0.5;exitDx=0;exitDy=0;entryX=0;entryY=0.5;entryDx=0;entryDy=0;fontSize=12;fontColor=#3333FF;" parent="1" source="cRGSgN0ht5B0TXOjpEZ--57" target="cRGSgN0ht5B0TXOjpEZ--45" edge="1">
          <mxGeometry relative="1" as="geometry">
            <Array as="points">
              <mxPoint x="420" y="832" />
              <mxPoint x="420" y="796" />
            </Array>
          </mxGeometry>
        </mxCell>
        <mxCell id="cRGSgN0ht5B0TXOjpEZ--57" value="&lt;b&gt;广点通计费&lt;br&gt;&lt;/b&gt;" style="rounded=1;whiteSpace=wrap;html=1;fillColor=#d5e8d4;strokeColor=#82b366;" parent="1" vertex="1">
          <mxGeometry x="216.5" y="802" width="120" height="60" as="geometry" />
        </mxCell>
        <mxCell id="cRGSgN0ht5B0TXOjpEZ--64" value="" style="rounded=1;whiteSpace=wrap;html=1;fontSize=12;fontColor=#3333FF;fillColor=default;" parent="1" vertex="1">
          <mxGeometry x="-109" y="749" width="120" height="46" as="geometry" />
        </mxCell>
        <mxCell id="mlC_rBUrCJSZMl_u4j2E-4" style="edgeStyle=orthogonalEdgeStyle;rounded=0;orthogonalLoop=1;jettySize=auto;html=1;exitX=1;exitY=0.5;exitDx=0;exitDy=0;entryX=0;entryY=0.5;entryDx=0;entryDy=0;" edge="1" parent="1" source="mlC_rBUrCJSZMl_u4j2E-1" target="mlC_rBUrCJSZMl_u4j2E-2">
          <mxGeometry relative="1" as="geometry" />
        </mxCell>
        <mxCell id="mlC_rBUrCJSZMl_u4j2E-6" value="javac" style="edgeLabel;html=1;align=center;verticalAlign=middle;resizable=0;points=[];fontStyle=1" vertex="1" connectable="0" parent="mlC_rBUrCJSZMl_u4j2E-4">
          <mxGeometry x="-0.037" relative="1" as="geometry">
            <mxPoint as="offset" />
          </mxGeometry>
        </mxCell>
        <mxCell id="mlC_rBUrCJSZMl_u4j2E-1" value="&lt;b&gt;Ad.java&lt;br&gt;Message/Builder&lt;br&gt;&lt;font color=&quot;#ff0000&quot;&gt;HasXx/GetXx/SetXx/ClearXx&lt;/font&gt;&lt;br&gt;&lt;/b&gt;" style="rounded=1;whiteSpace=wrap;html=1;fillColor=#f5f5f5;strokeColor=#666666;fontColor=#333333;" vertex="1" parent="1">
          <mxGeometry x="583" y="1322" width="179" height="87" as="geometry" />
        </mxCell>
        <mxCell id="mlC_rBUrCJSZMl_u4j2E-2" value="&lt;b&gt;Ad.class&lt;/b&gt;" style="rounded=1;whiteSpace=wrap;html=1;fillColor=#d5e8d4;strokeColor=#82b366;" vertex="1" parent="1">
          <mxGeometry x="856" y="1341" width="106.5" height="49" as="geometry" />
        </mxCell>
      </root>
    </mxGraphModel>
  </diagram>
</mxfile>
